<?xml version="1.0" encoding="iso-8859-1"?>
<!-- Generator: Adobe Illustrator 19.0.0, SVG Export Plug-In . SVG Version: 6.00 Build 0)  -->
<svg version="1.1" id="Capa_1" xmlns="http://www.w3.org/2000/svg" xmlns:xlink="http://www.w3.org/1999/xlink" x="0px" y="0px"
	 viewBox="0 0 432.037 432.037" style="enable-background:new 0 0 432.037 432.037;" xml:space="preserve">
<path style="fill:#FFC477;" d="M248.017,8.04C193.37,7.995,141.81,33.361,108.497,76.68c56.774-43.762,134.403-48.76,196.32-12.64
	c-61.917-36.12-139.546-31.122-196.32,12.64c-11.994,9.194-22.726,19.926-31.92,31.92c6.094-4.694,12.48-8.996,19.12-12.88
	c84.183-48.719,191.921-19.97,240.64,64.213c31.581,54.569,31.581,121.858,0,176.427c-3.865,6.652-8.168,13.039-12.88,19.12
	c11.977-9.244,22.706-20,31.92-32l0.08-0.08l0.08-0.08c43.442-56.509,48.527-133.636,12.88-195.36
	c35.647,61.724,30.562,138.851-12.88,195.36c76.922-59.424,91.107-169.955,31.683-246.877
	C353.909,33.323,302.504,8.063,248.017,8.04L248.017,8.04z M327.969,80.232c8.83,7.286,16.932,15.412,24.192,24.264
	C344.901,95.644,336.799,87.518,327.969,80.232L327.969,80.232z"/>
<g>
	<path style="fill:#EBE5DD;" d="M173.537,326.68c3.44,1.68,6.88,3.28,10.48,4.72v-3.36c-3.8-0.059-7.571-0.663-11.2-1.792
		c0.232,0.112,0.448,0.24,0.672,0.352C173.52,326.613,173.539,326.645,173.537,326.68z"/>
	<path style="fill:#EBE5DD;" d="M156.017,316.56c4.719,4.56,10.489,7.887,16.8,9.688
		C167.015,323.382,161.403,320.146,156.017,316.56z"/>
</g>
<path style="fill:#FFB655;" d="M360.017,248.04c-0.061-97.264-78.958-176.063-176.222-176.002
	c-30.937,0.019-61.322,8.187-88.098,23.682c-6.64,3.884-13.026,8.186-19.12,12.88c-76.916,59.432-91.09,169.964-31.659,246.88
	s169.964,91.09,246.88,31.659c11.858-9.162,22.496-19.801,31.659-31.659C347.262,324.734,360.128,286.924,360.017,248.04z
	 M87.849,344.208c-7.618-7.588-14.278-16.081-19.832-25.288c5.561,9.208,12.23,17.701,19.856,25.288
	c10.275,10.339,22.171,18.929,35.216,25.432C110.035,363.139,98.131,354.548,87.849,344.208z M144.017,288.04
	c-0.005,10.735,4.322,21.018,12,28.52c5.387,3.586,10.998,6.822,16.8,9.688c21.146,6.239,43.346-5.845,49.585-26.991
	c6.239-21.146-5.845-43.346-26.991-49.585c-3.699-1.091-7.537-1.641-11.394-1.632c-22.091,0-40-17.909-40-40s17.909-40,40-40
	s40,17.909,40,40c0-22.091-17.909-40-40-40s-40,17.909-40,40s17.909,40,40,40s40,17.909,40,40s-17.909,40-40,40v3.36
	c-3.6-1.44-7.04-3.04-10.48-4.72c0-0.044-0.036-0.08-0.08-0.08c-0.224-0.112-0.44-0.24-0.672-0.352
	c-6.311-1.801-12.081-5.128-16.8-9.688l-0.32-0.2l0.32,0.2C148.318,309.052,144.003,298.77,144.017,288.04z M284.097,340.12h-0.08
	c-1.2,1.36-2.48,2.72-3.84,4.08c-32.092,32.065-78.059,46.017-122.56,37.2c44.501,8.817,90.468-5.135,122.56-37.2
	c1.36-1.36,2.64-2.72,3.84-4.08H284.097c50.905-55.229,47.4-141.268-7.829-192.174s-141.268-47.4-192.174,7.829
	c-32.176,34.91-43.819,84.072-30.717,129.704c-20.676-72.181,21.078-147.457,93.259-168.133s147.457,21.078,168.133,93.259
	C327.821,256.172,316.199,305.247,284.097,340.12z"/>
<g>
	<path style="fill:#231F20;" d="M126.649,362.44c-12.271-6.108-23.463-14.177-33.136-23.888
		c-7.169-7.125-13.437-15.101-18.664-23.752c-2.207-3.828-7.099-5.141-10.927-2.934s-5.141,7.099-2.934,10.927
		c0.048,0.084,0.098,0.166,0.149,0.248c5.897,9.768,12.968,18.776,21.056,26.824c10.9,10.943,23.514,20.034,37.344,26.912
		c3.959,1.964,8.76,0.347,10.724-3.612S130.607,364.403,126.649,362.44L126.649,362.44z"/>
	<path style="fill:#231F20;" d="M184.017,320.04c-17.673,0-32-14.327-32-32h-16c0.043,23.397,16.934,43.361,40,47.28v16.72h16
		v-16.72c26.112-4.572,43.575-29.446,39.003-55.559c-4.003-22.863-23.792-39.587-47.003-39.721c-17.673,0-32-14.327-32-32
		s14.327-32,32-32s32,14.327,32,32h16c-0.043-23.397-16.934-43.361-40-47.28v-16.72h-16v16.72
		c-26.112,4.572-43.575,29.446-39.003,55.559c4.003,22.863,23.792,39.587,47.003,39.721c17.673,0,32,14.327,32,32
		S201.69,320.04,184.017,320.04z"/>
	<path style="fill:#231F20;" d="M345.977,109.568c2.801,3.418,7.842,3.917,11.26,1.116c3.418-2.801,3.917-7.842,1.116-11.26
		c-7.594-9.249-16.063-17.744-25.288-25.368c-3.42-2.814-8.474-2.324-11.288,1.096s-2.324,8.474,1.096,11.288
		C331.299,93.389,339.036,101.134,345.977,109.568L345.977,109.568z"/>
	<path style="fill:#231F20;" d="M285.841,146.224c-56.154-56.236-147.264-56.302-203.5-0.147
		c-6.002,5.993-11.462,12.505-16.316,19.459c-24.922,35.533-32.402,80.444-20.344,122.136c1.211,4.25,5.638,6.715,9.888,5.504
		s6.715-5.638,5.504-9.888c-19.46-67.934,19.835-138.78,87.769-158.241c44.686-12.801,92.799-0.36,125.679,32.497
		c3.04,3.035,5.896,6.173,8.568,9.416c40.415,48.975,38.593,120.234-4.272,167.08c-0.128,0.112-0.24,0.24-0.368,0.36l-0.144,0.144
		c-0.096,0.096-0.2,0.184-0.288,0.28c-1.088,1.232-2.24,2.472-3.504,3.72c-30.193,30.16-73.431,43.288-115.296,35.008
		c-4.334-0.859-8.545,1.958-9.404,6.292c-0.859,4.334,1.958,8.545,6.292,9.404c47.111,9.333,95.774-5.435,129.752-39.376
		c1.256-1.248,2.4-2.496,3.568-3.752c0.204-0.182,0.399-0.374,0.584-0.576C342.589,288.847,340.745,200.672,285.841,146.224
		L285.841,146.224z"/>
	<path style="fill:#231F20;" d="M432.017,184.04C432.039,82.419,349.677,0.022,248.056,0
		c-56.79-0.012-110.403,26.199-145.272,71.024c-11.923,9.249-22.634,19.963-31.88,31.888
		c-80.146,62.476-94.47,178.095-31.994,258.241s178.095,94.47,258.241,31.994c11.943-9.31,22.691-20.059,32.001-32.003
		c11.951-9.33,22.7-20.106,32-32.08C405.989,294.33,432.168,240.756,432.017,184.04L432.017,184.04z M416.017,184.04
		c0.06,30.836-8.44,61.084-24.552,87.376c15.563-49.242,9.71-102.758-16.128-147.472c-2.048-3.915-6.882-5.428-10.797-3.381
		s-5.428,6.882-3.381,10.797c0.104,0.199,0.217,0.394,0.337,0.584c30.745,53.198,29.959,118.944-2.048,171.392
		c30.627-96.803-23.02-200.105-119.822-230.731c-36.109-11.424-74.865-11.417-110.97,0.019
		c26.273-16.146,56.522-24.659,87.36-24.584c29.783-0.024,59.035,7.882,84.752,22.904c3.918,2.042,8.75,0.522,10.792-3.396
		c1.908-3.659,0.719-8.169-2.744-10.412c-44.949-26.232-98.901-32.214-148.504-16.464C239.52-7.726,342.965,17.25,391.363,96.458
		C407.477,122.83,416.007,153.134,416.017,184.04L416.017,184.04z M184.017,416.04c-92.784,0.024-168.019-75.173-168.044-167.956
		c-0.014-52.151,24.192-101.35,65.516-133.164c5.806-4.479,11.893-8.58,18.224-12.28c80.371-46.493,183.215-19.03,229.708,61.341
		c30.123,52.072,30.127,116.27,0.012,168.347C299.266,384.075,243.915,415.939,184.017,416.04L184.017,416.04z"/>
</g>
<g>
</g>
<g>
</g>
<g>
</g>
<g>
</g>
<g>
</g>
<g>
</g>
<g>
</g>
<g>
</g>
<g>
</g>
<g>
</g>
<g>
</g>
<g>
</g>
<g>
</g>
<g>
</g>
<g>
</g>
</svg>
