<svg height="452pt" viewBox="-1 0 452 452.41379" width="452pt" xmlns="http://www.w3.org/2000/svg"><path d="m65.140625 22.351562s6.816406 25.316407 26.445313 26.492188c0 0-26.199219 9.050781-26.640626 28.402344 0 0-5.15625-27.140625-25.851562-28.117188 0 .003906 24.101562-3.648437 26.046875-26.777344zm0 0" fill="#d6df58"/><path d="m64.941406 80.246094c-1.425781 0-2.671875-1.011719-2.945312-2.433594-.046875-.25-4.992188-24.835938-23.046875-25.6875-1.539063-.070312-2.773438-1.300781-2.855469-2.839844-.078125-1.542968 1.023438-2.890625 2.550781-3.125.882813-.132812 21.785157-3.628906 23.507813-24.0625.121094-1.453125 1.265625-2.601562 2.71875-2.734375 1.433594-.125 2.785156.796875 3.164062 2.203125.0625.234375 6.519532 23.253906 23.726563 24.285156 1.429687.085938 2.597656 1.167969 2.792969 2.585938.195312 1.414062-.640626 2.773438-1.988282 3.242188-.242187.085937-24.238281 8.621093-24.625 25.636718-.039062 1.535156-1.222656 2.792969-2.75 2.921875-.082031.007813-.167968.007813-.25.007813zm-15.480468-31.457032c7.753906 3.9375 12.457031 11.492188 15.171874 17.753907 4.054688-8.042969 11.882813-13.574219 17.898438-16.855469-8.269531-3.683594-13.566406-11.300781-16.667969-17.445312-3.585937 8.722656-10.542969 13.738281-16.402343 16.546874zm0 0" fill="#3a312a"/><path d="m21.746094 56.3125s4.820312 17.910156 18.703125 18.738281c0 0-18.53125 6.402344-18.84375 20.089844 0 0-3.648438-19.199219-18.285157-19.886719 0 0 17.046876-2.582031 18.425782-18.941406zm0 0" fill="#d6df58"/><path d="m21.601562 98.144531c-1.425781 0-2.675781-1.015625-2.945312-2.441406-.03125-.164063-3.40625-16.882813-15.480469-17.453125-1.539062-.070312-2.773437-1.300781-2.851562-2.84375-.082031-1.539062 1.019531-2.886719 2.546875-3.121094.589844-.09375 14.726562-2.484375 15.882812-16.226562.125-1.449219 1.273438-2.605469 2.722656-2.734375 1.464844-.140625 2.78125.800781 3.164063 2.203125.042969.15625 4.453125 15.839844 15.988281 16.53125 1.425782.085937 2.597656 1.167968 2.789063 2.585937.199219 1.417969-.636719 2.777344-1.992188 3.242188-.160156.058593-16.5625 5.90625-16.820312 17.324219-.035157 1.535156-1.222657 2.792968-2.753907 2.921874-.085937.007813-.167968.011719-.25.011719zm-9.039062-23.058593c4.214844 2.664062 7.046875 6.792968 8.894531 10.558593 2.753907-4.460937 7.03125-7.742187 10.730469-9.941406-4.574219-2.542969-7.769531-6.703125-9.882812-10.453125-2.34375 4.578125-6.027344 7.753906-9.742188 9.835938zm0 0" fill="#3a312a"/><path d="m21.746094 2.996094s4.820312 17.910156 18.703125 18.742187c0 0-18.53125 6.402344-18.84375 20.089844 0 0-3.648438-19.199219-18.285157-19.886719 0 0 17.046876-2.582031 18.425782-18.945312zm0 0" fill="#d6df58"/><path d="m21.601562 44.828125c-1.429687 0-2.675781-1.011719-2.945312-2.4375-.03125-.164063-3.410156-16.886719-15.480469-17.453125-1.539062-.074219-2.773437-1.300781-2.855469-2.84375-.078124-1.539062 1.023438-2.886719 2.546876-3.121094.59375-.09375 14.726562-2.484375 15.886718-16.226562.121094-1.449219 1.269532-2.605469 2.71875-2.7343752 1.464844-.1289068 2.785156.7968752 3.164063 2.2031252.042969.160156 4.457031 15.839844 15.988281 16.53125 1.429688.082031 2.597656 1.167968 2.789062 2.585937.199219 1.417969-.636718 2.777344-1.992187 3.242188-.160156.058593-16.5625 5.90625-16.824219 17.324219-.03125 1.539062-1.21875 2.796874-2.75 2.921874-.082031.003907-.164062.007813-.246094.007813zm-9.039062-23.054687c4.214844 2.664062 7.046875 6.789062 8.894531 10.558593 2.753907-4.464843 7.03125-7.746093 10.730469-9.945312-4.574219-2.539063-7.769531-6.699219-9.882812-10.449219-2.34375 4.578125-6.027344 7.753906-9.742188 9.835938zm0 0" fill="#3a312a"/><path d="m131.488281 345.167969v68.636719c0 19.664062 15.941407 35.609374 35.609375 35.609374h243.792969c19.664063 0 35.609375-15.941406 35.609375-35.609374v-344.28125c0-19.667969-15.941406-35.613282-35.609375-35.613282h-243.792969c-19.664062 0-35.609375 15.945313-35.609375 35.613282zm0 0" fill="#fae6ca"/><path d="m410.890625 452.414062h-243.792969c-21.289062 0-38.609375-17.320312-38.609375-38.609374v-68.632813c0-1.65625 1.339844-3 3-3 1.65625 0 3 1.34375 3 3v68.632813c0 17.980468 14.628907 32.609374 32.609375 32.609374h243.792969c17.980469 0 32.609375-14.628906 32.609375-32.609374v-344.28125c0-17.980469-14.628906-32.613282-32.609375-32.613282h-243.792969c-17.980468 0-32.609375 14.628906-32.609375 32.613282v249.128906c0 1.65625-1.34375 3-3 3-1.660156 0-3-1.34375-3-3v-249.128906c0-21.292969 17.320313-38.613282 38.609375-38.613282h243.792969c21.285156 0 38.609375 17.320313 38.609375 38.613282v344.28125c0 21.285156-17.324219 38.609374-38.609375 38.609374zm0 0" fill="#3a312a"/><path d="m331.09375 114.914062h115.730469v-45.390624c0-19.667969-15.941407-35.613282-35.609375-35.613282h-243.792969c-19.664063 0-35.609375 15.945313-35.609375 35.613282v45.386718h199.28125zm0 0" fill="#8ac5dc"/><path d="m446.824219 117.914062h-115.734375c-1.65625 0-3-1.34375-3-3s1.34375-3 3-3h112.734375v-42.390624c0-17.980469-14.628907-32.613282-32.609375-32.613282h-243.789063c-17.980469 0-32.609375 14.628906-32.609375 32.613282v42.386718h170.730469c1.65625 0 3 1.34375 3 3s-1.34375 3-3 3h-173.730469c-1.660156 0-3-1.34375-3-3v-45.386718c0-21.292969 17.320313-38.613282 38.609375-38.613282h243.789063c21.289062 0 38.609375 17.320313 38.609375 38.613282v45.386718c0 1.660156-1.34375 3.003906-3 3.003906zm0 0" fill="#3a312a"/><path d="m152.902344 56.945312v-42.5625c0-6.078124 4.921875-11 11-11h.910156c6.074219 0 11 4.921876 11 11v42.5625c0 6.078126-4.925781 11-11 11h-.910156c-6.074219 0-11-4.925781-11-11zm0 0" fill="#87796f"/><path d="m164.8125 70.945312h-.910156c-7.722656 0-14-6.285156-14-14v-42.5625c0-7.71875 6.277344-14 14-14h.910156c7.71875 0 14 6.28125 14 14v42.5625c0 7.71875-6.28125 14-14 14zm-.910156-64.5625c-4.414063 0-8 3.585938-8 8v42.5625c0 4.410157 3.585937 8 8 8h.910156c4.410156 0 8-3.589843 8-8v-42.5625c0-4.414062-3.589844-8-8-8zm0 0" fill="#3a312a"/><path d="m202.886719 56.945312v-42.5625c0-6.078124 4.925781-11 11-11h.910156c6.078125 0 11 4.921876 11 11v42.5625c0 6.078126-4.921875 11-11 11h-.910156c-6.074219 0-11-4.925781-11-11zm0 0" fill="#87796f"/><path d="m214.796875 70.945312h-.910156c-7.71875 0-14-6.285156-14-14v-42.5625c0-7.71875 6.28125-14 14-14h.910156c7.71875 0 14 6.28125 14 14v42.5625c0 7.71875-6.28125 14-14 14zm-.910156-64.5625c-4.410157 0-8 3.585938-8 8v42.5625c0 4.410157 3.589843 8 8 8h.910156c4.414063 0 8-3.589843 8-8v-42.5625c0-4.414062-3.585937-8-8-8zm0 0" fill="#3a312a"/><path d="m252.871094 56.945312v-42.5625c0-6.078124 4.925781-11 11-11h.910156c6.078125 0 11 4.921876 11 11v42.5625c0 6.078126-4.921875 11-11 11h-.910156c-6.074219 0-11-4.925781-11-11zm0 0" fill="#87796f"/><path d="m264.78125 70.945312h-.910156c-7.71875 0-14-6.285156-14-14v-42.5625c0-7.71875 6.28125-14 14-14h.910156c7.71875 0 14 6.28125 14 14v42.5625c0 7.71875-6.28125 14-14 14zm-.910156-64.5625c-4.410156 0-8 3.585938-8 8v42.5625c0 4.410157 3.589844 8 8 8h.910156c4.414062 0 8-3.589843 8-8v-42.5625c0-4.414062-3.585938-8-8-8zm0 0" fill="#3a312a"/><path d="m302.859375 56.945312v-42.5625c0-6.078124 4.921875-11 11-11h.90625c6.078125 0 11 4.921876 11 11v42.5625c0 6.078126-4.921875 11-11 11h-.90625c-6.078125 0-11-4.925781-11-11zm0 0" fill="#87796f"/><path d="m314.765625 70.945312h-.910156c-7.71875 0-14-6.285156-14-14v-42.5625c0-7.71875 6.28125-14 14-14h.910156c7.71875 0 14 6.28125 14 14v42.5625c0 7.71875-6.28125 14-14 14zm-.90625-64.5625c-4.414063 0-8 3.585938-8 8v42.5625c0 4.410157 3.585937 8 8 8h.90625c4.414063 0 8-3.589843 8-8v-42.5625c0-4.414062-3.585937-8-8-8zm0 0" fill="#3a312a"/><path d="m352.839844 56.945312v-42.5625c0-6.078124 4.925781-11 11-11h.910156c6.074219 0 11 4.921876 11 11v42.5625c0 6.078126-4.925781 11-11 11h-.910156c-6.074219 0-11-4.925781-11-11zm0 0" fill="#87796f"/><path d="m364.75 70.945312h-.910156c-7.71875 0-14-6.285156-14-14v-42.5625c0-7.71875 6.28125-14 14-14h.910156c7.722656 0 14 6.28125 14 14v42.5625c0 7.71875-6.277344 14-14 14zm-.910156-64.5625c-4.410156 0-8 3.585938-8 8v42.5625c0 4.410157 3.589844 8 8 8h.910156c4.410156 0 8-3.589843 8-8v-42.5625c0-4.414062-3.589844-8-8-8zm0 0" fill="#3a312a"/><path d="m402.828125 56.945312v-42.5625c0-6.078124 4.921875-11 11-11h.910156c6.074219 0 11 4.921876 11 11v42.5625c0 6.078126-4.925781 11-11 11h-.910156c-6.078125 0-11-4.925781-11-11zm0 0" fill="#87796f"/><path d="m414.738281 70.945312h-.910156c-7.71875 0-14-6.285156-14-14v-42.5625c0-7.71875 6.28125-14 14-14h.910156c7.71875 0 14 6.28125 14 14v42.5625c-.003906 7.71875-6.28125 14-14 14zm-.910156-64.5625c-4.414063 0-8 3.585938-8 8v42.5625c0 4.410157 3.585937 8 8 8h.910156c4.410157 0 8-3.589843 8-8v-42.5625c0-4.414062-3.589843-8-8-8zm0 0" fill="#3a312a"/><path d="m194.605469 113.25 6.46875-12.796875c4.671875-9.246094.96875-20.527344-8.277344-25.199219-9.242187-4.671875-20.523437-.964844-25.199219 8.277344l-6.46875 12.800781zm0 0" fill="#ef6d7a"/><path d="m194.605469 116.25c-.457031 0-.917969-.105469-1.355469-.320312l-33.472656-16.917969c-1.480469-.75-2.074219-2.554688-1.324219-4.035157l6.464844-12.796874c5.410156-10.707032 18.519531-15.015626 29.230469-9.605469 5.1875 2.625 9.042968 7.109375 10.855468 12.625 1.8125 5.523437 1.367188 11.417969-1.253906 16.605469l-6.464844 12.796874c-.53125 1.046876-1.585937 1.648438-2.679687 1.648438zm-29.445313-21.242188 28.125 14.210938 5.113282-10.121094c1.898437-3.757812 2.222656-8.027344.910156-12.027344-1.316406-3.996093-4.105469-7.242187-7.863282-9.140624-7.75-3.921876-17.25-.800782-21.167968 6.953124zm0 0" fill="#3a312a"/><path d="m194.605469 113.25-152.765625 299.800781-33.472656-16.917969 152.761718-299.800781zm0 0" fill="#8ac5dc"/><path d="m41.839844 416.050781c-.457032 0-.917969-.101562-1.351563-.320312l-33.476562-16.921875c-.710938-.359375-1.25-.988282-1.5-1.746094-.246094-.757812-.183594-1.582031.179687-2.289062l152.765625-299.800782c.75-1.476562 2.546875-2.0625 4.027344-1.316406l33.476563 16.917969c.707031.359375 1.25.988281 1.496093 1.746093.25.757813.183594 1.582032-.175781 2.292969l-152.769531 299.796875c-.527344 1.042969-1.582031 1.640625-2.671875 1.640625zm-29.4375-21.238281 28.125 14.214844 150.039062-294.457032-28.121094-14.210937zm0 0" fill="#3a312a"/><path d="m84.496094 246.722656-76.128906 149.410156 33.472656 16.917969 76.132812-149.40625zm0 0" fill="#ef6d7a"/><path d="m41.839844 416.050781c-.457032 0-.917969-.101562-1.351563-.320312l-33.476562-16.921875c-.710938-.359375-1.25-.988282-1.5-1.746094-.246094-.757812-.183594-1.582031.179687-2.289062l76.132813-149.410157c.75-1.476562 2.550781-2.058593 4.023437-1.316406l33.476563 16.921875c.710937.359375 1.253906.988281 1.5 1.746094.246093.757812.183593 1.582031-.179688 2.289062l-76.132812 149.410156c-.527344 1.039063-1.582031 1.636719-2.671875 1.636719zm-29.4375-21.238281 28.125 14.214844 73.410156-144.0625-28.125-14.214844zm0 0" fill="#3a312a"/><path d="m41.839844 413.050781-33.472656-16.917969-5.160157 51.78125zm0 0" fill="#d6df58"/><path d="m3.207031 450.914062c-.460937 0-.925781-.105468-1.351562-.324218-1.109375-.554688-1.7578128-1.738282-1.632813-2.972656l5.15625-51.78125c.097656-.984376.675782-1.859376 1.542969-2.335938.871094-.472656 1.914063-.488281 2.796875-.046875l33.476562 16.921875c.882813.445312 1.488282 1.296875 1.621094 2.277344.128906.980468-.230468 1.964844-.964844 2.625l-38.632812 34.863281c-.566406.507813-1.285156.773437-2.011719.773437zm7.710938-50.132812-3.957031 39.703125 29.621093-26.730469zm0 0" fill="#3a312a"/><path d="m413.5 117.914062v295.898438c0 17.980469-14.621094 32.601562-32.601562 32.601562h30c17.980468 0 32.601562-14.621093 32.601562-32.601562v-295.898438zm0 0" fill="#decaad"/><path d="m443.820312 69.515625v42.398437h-30v-40.960937h.917969c7.722657 0 14-6.28125 14-14v-14.878906c9.0625 5.800781 15.082031 15.917969 15.082031 27.441406zm0 0" fill="#6ca8bf"/><path d="m388.515625 224.304688c0 2.734374-.933594 5.480468-2.847656 7.710937l-10.851563 12.625c-1.25 1.460937-2.78125 2.535156-4.449218 3.214844-4.546876-5.757813-9.6875-11.027344-15.328126-15.703125.445313-1.039063 1.0625-2.03125 1.835938-2.929688l10.851562-12.625c4.25-4.953125 11.714844-5.515625 16.679688-1.265625 2.722656 2.335938 4.109375 5.644531 4.109375 8.972657zm0 0" fill="#f16c7a"/><path d="m370.367188 250.855469c-.902344 0-1.777344-.40625-2.359376-1.144531-4.410156-5.589844-9.417968-10.71875-14.878906-15.246094-1.023437-.847656-1.371094-2.265625-.847656-3.488282.570312-1.335937 1.351562-2.582031 2.316406-3.707031l10.851563-12.628906c5.316406-6.191406 14.695312-6.902344 20.910156-1.585937 3.277344 2.816406 5.15625 6.917968 5.15625 11.25 0 3.550781-1.269531 6.980468-3.574219 9.664062l-10.851562 12.628906c-1.535156 1.789063-3.417969 3.152344-5.597656 4.035156-.363282.148438-.75.222657-1.125.222657zm-11.472657-19.363281c4.398438 3.824218 8.496094 8.023437 12.226563 12.527343.515625-.382812.988281-.824219 1.414062-1.324219l10.855469-12.632812c1.371094-1.597656 2.125-3.640625 2.125-5.753906 0-2.582032-1.117187-5.023438-3.0625-6.695313-3.699219-3.164062-9.285156-2.746093-12.453125.9375l-10.851562 12.628907c-.085938.101562-.171876.207031-.253907.3125zm0 0" fill="#3a312a"/><path d="m392.390625 311.523438c0 56.882812-46.113281 102.996093-102.996094 102.996093-56.882812 0-102.996093-46.113281-102.996093-102.996093 0-56.882813 46.113281-102.996094 102.996093-102.996094 56.882813 0 102.996094 46.113281 102.996094 102.996094zm0 0" fill="#87796f"/><path d="m289.394531 417.519531c-58.445312 0-105.996093-47.550781-105.996093-105.996093 0-58.449219 47.546874-105.996094 105.996093-105.996094 58.445313 0 105.996094 47.546875 105.996094 105.996094 0 58.445312-47.550781 105.996093-105.996094 105.996093zm0-205.992187c-55.140625 0-99.996093 44.855468-99.996093 99.996094 0 55.136718 44.855468 99.996093 99.996093 99.996093 55.136719 0 99.996094-44.859375 99.996094-99.996093 0-55.140626-44.859375-99.996094-99.996094-99.996094zm0 0" fill="#3a312a"/><path d="m220.542969 262.519531c-9.859375 13.828125-15.675781 30.730469-15.675781 49.003907 0 46.683593 37.84375 84.527343 84.527343 84.527343 46.683594 0 84.527344-37.84375 84.527344-84.527343 0-46.683594-37.84375-84.527344-84.527344-84.527344-22.253906 0-42.484375 8.613281-57.578125 22.667968zm0 0" fill="#d7e057"/><path d="m289.394531 399.050781c-48.261719 0-87.527343-39.265625-87.527343-87.527343 0-18.304688 5.613281-35.855469 16.234374-50.746094.058594-.082032.121094-.160156.1875-.234375l11.269532-12.859375c.066406-.074219.140625-.148438.214844-.214844 16.253906-15.136719 37.429687-23.472656 59.621093-23.472656 48.261719 0 87.527344 39.265625 87.527344 87.527344 0 48.265624-39.265625 87.527343-87.527344 87.527343zm-66.496093-134.667969c-9.835938 13.84375-15.03125 30.140626-15.03125 47.140626 0 44.953124 36.574218 81.527343 81.527343 81.527343s81.527344-36.574219 81.527344-81.527343c0-44.957032-36.574219-81.53125-81.527344-81.53125-20.621093 0-40.296875 7.726562-55.425781 21.761718zm0 0" fill="#3a312a"/><path d="m303.375 185.324219v24.542969c-4.566406-.628907-9.238281-.945313-13.980469-.945313-4.742187 0-9.417969.316406-13.984375.945313v-24.542969zm0 0" fill="#8ac6dd"/><path d="m303.375 212.867188c-.136719 0-.273438-.007813-.410156-.027344-8.828125-1.222656-18.3125-1.222656-27.144532 0-.855468.113281-1.726562-.140625-2.378906-.710938-.652344-.570312-1.03125-1.394531-1.03125-2.261718v-24.542969c0-1.65625 1.34375-3 3-3h27.964844c1.660156 0 3 1.34375 3 3v24.542969c0 .867187-.375 1.691406-1.03125 2.261718-.546875.480469-1.25.738282-1.96875.738282zm-13.980469-6.949219c3.691407 0 7.371094.191406 10.980469.566406v-18.160156h-21.964844v18.160156c3.613282-.375 7.292969-.566406 10.984375-.566406zm0 0" fill="#3a312a"/><path d="m270.921875 153.914062h-10.429687c-5.515626 0-9.984376 4.46875-9.984376 9.984376v11.0625c0 5.515624 4.46875 9.984374 9.984376 9.984374h57.808593c5.511719 0 9.984375-4.46875 9.984375-9.984374v-11.0625c0-5.515626-4.472656-9.984376-9.984375-9.984376zm0 0" fill="#8ac6dd"/><g fill="#3a312a"><path d="m318.296875 187.945312h-57.808594c-7.160156 0-12.984375-5.824218-12.984375-12.984374v-11.0625c0-7.160157 5.824219-12.984376 12.984375-12.984376h57.808594c7.160156 0 12.984375 5.824219 12.984375 12.984376v11.0625c0 7.160156-5.824219 12.984374-12.984375 12.984374zm-57.808594-31.03125c-3.847656 0-6.984375 3.132813-6.984375 6.984376v11.0625c0 3.851562 3.132813 6.984374 6.984375 6.984374h57.808594c3.851563 0 6.984375-3.132812 6.984375-6.984374v-11.0625c0-3.851563-3.132812-6.984376-6.984375-6.984376zm0 0"/><path d="m289.394531 234.246094c-.921875 0-1.671875.746094-1.671875 1.667968v3.394532c0 .921875.75 1.671875 1.671875 1.671875s1.667969-.75 1.667969-1.671875v-3.394532c0-.921874-.746094-1.667968-1.667969-1.667968zm0 0"/><path d="m289.394531 381.988281c-.921875 0-1.671875.75-1.671875 1.671875v3.394532c0 .921874.75 1.667968 1.671875 1.667968s1.667969-.746094 1.667969-1.667968v-3.394532c0-.921875-.746094-1.671875-1.667969-1.671875zm0 0"/><path d="m366.632812 311.484375c0-.921875-.746093-1.671875-1.667968-1.671875h-3.394532c-.921874 0-1.671874.75-1.671874 1.671875s.75 1.667969 1.671874 1.667969h3.394532c.921875.003906 1.667968-.746094 1.667968-1.667969zm0 0"/><path d="m218.890625 311.484375c0-.921875-.75-1.671875-1.671875-1.671875h-3.394531c-.921875 0-1.667969.75-1.667969 1.671875s.746094 1.667969 1.667969 1.667969h3.394531c.921875.003906 1.671875-.746094 1.671875-1.667969zm0 0"/><path d="m344.007812 256.867188c-.648437-.652344-1.707031-.652344-2.359374 0l-2.402344 2.402343c-.652344.648438-.652344 1.707031 0 2.359375s1.710937.652344 2.363281 0l2.398437-2.398437c.652344-.652344.652344-1.707031 0-2.363281zm0 0"/><path d="m239.539062 361.339844c-.652343-.652344-1.710937-.652344-2.363281 0l-2.398437 2.398437c-.652344.652344-.652344 1.710938 0 2.363281.652344.652344 1.710937.652344 2.363281 0l2.398437-2.398437c.652344-.652344.652344-1.710937 0-2.363281zm0 0"/><path d="m344.007812 366.101562c.652344-.652343.652344-1.710937 0-2.363281l-2.398437-2.398437c-.652344-.652344-1.710937-.652344-2.363281 0s-.652344 1.710937 0 2.363281l2.402344 2.398437c.652343.652344 1.710937.652344 2.359374 0zm0 0"/><path d="m239.539062 261.628906c.652344-.652344.652344-1.710937 0-2.359375l-2.398437-2.402343c-.652344-.652344-1.710937-.652344-2.363281 0-.652344.652343-.652344 1.710937 0 2.363281l2.398437 2.398437c.652344.65625 1.710938.65625 2.363281 0zm0 0"/><path d="m344.007812 366.101562c-.652343.652344-1.710937.652344-2.363281 0l-2.394531-2.394531c-.65625-.65625-.65625-1.710937 0-2.363281.652344-.652344 1.710938-.652344 2.363281 0l2.390625 2.394531c.65625.652344.65625 1.707031.003906 2.363281zm0 0"/></g><path d="m283.273438 286.179688v15.886718c1.765624-1.144531 3.867187-1.8125 6.121093-1.8125 2.253907 0 4.355469.667969 6.117188 1.8125v-47.976562c0-3.386719-2.742188-6.117188-6.117188-6.117188-3.378906 0-6.121093 2.734375-6.121093 6.117188zm0 0" fill="#f16c7a"/><path d="m295.511719 305.066406c-.566407 0-1.136719-.164062-1.632813-.484375-2.667968-1.734375-6.300781-1.734375-8.972656 0-.921875.601563-2.097656.644531-3.066406.121094-.964844-.523437-1.566406-1.535156-1.566406-2.636719v-47.972656c0-5.027344 4.089843-9.121094 9.117187-9.121094 5.03125 0 9.121094 4.09375 9.121094 9.121094v47.972656c0 1.101563-.601563 2.113282-1.566407 2.636719-.449218.242187-.941406.363281-1.433593.363281zm-6.117188-7.8125c1.058594 0 2.101563.117188 3.121094.34375v-43.507812c0-1.71875-1.398437-3.121094-3.121094-3.121094-1.722656 0-3.121093 1.398438-3.121093 3.121094v43.507812c1.019531-.226562 2.0625-.34375 3.121093-.34375zm0 0" fill="#3a312a"/><path d="m300.667969 311.523438c0 6.226562-5.046875 11.273437-11.273438 11.273437-6.226562 0-11.273437-5.046875-11.273437-11.273437 0-6.226563 5.046875-11.273438 11.273437-11.273438 6.226563 0 11.273438 5.046875 11.273438 11.273438zm0 0" fill="#fce8cb"/><path d="m289.394531 325.796875c-7.871093 0-14.273437-6.402344-14.273437-14.273437 0-7.871094 6.402344-14.273438 14.273437-14.273438 7.867188 0 14.273438 6.402344 14.273438 14.273438 0 7.871093-6.40625 14.273437-14.273438 14.273437zm0-22.546875c-4.5625 0-8.273437 3.710938-8.273437 8.273438s3.710937 8.273437 8.273437 8.273437 8.273438-3.710937 8.273438-8.273437-3.710938-8.273438-8.273438-8.273438zm0 0" fill="#3a312a"/></svg>